<?xml version="1.0" encoding="UTF-8"?>
<svg id="Layer_2" data-name="Layer 2" xmlns="http://www.w3.org/2000/svg" viewBox="0 0 2050.99 2047.94">
  <defs>
    <style>
      .cls-1 {
        fill: #fff;
      }
    </style>
  </defs>
  <g id="Layer_1-2" data-name="Layer 1">
    <g>
      <path d="m2050.99,998.22c-8.34,371.05-148.76,651.13-431.88,858.59-193.53,141.8-414.29,206.13-654.6,188.18-369.51-27.6-647.71-204.24-833.73-517.43C28.72,1355.74-8.62,1167.48,1.64,970.12c11.37-218.72,84.7-415.81,223.87-587.8C385.52,184.58,592.33,58.74,846.3,16.4c340.69-56.8,639.48,34.36,889.42,267.68,158.47,147.94,254.62,331.84,294.18,542.73,12.15,64.76,16.29,130.97,21.1,171.41Zm-1951.86,52.51c4.21,36.51,6.94,97.97,18.92,157.64,52.47,261.32,195.7,463.38,425.63,604.43,205.46,126.04,430.29,163.53,666.15,114.98,282.28-58.1,492-217.84,628.69-465.54,111.77-202.53,136.38-419.58,85.54-643.18-57.25-251.76-195.73-450.96-420.99-587.15-190.54-115.2-398.81-153.38-620.05-120.59-174.16,25.81-328.72,95.77-459.96,210.29C208.68,508.7,104.8,746.01,99.14,1050.73Z"/>
      <path class="cls-1" d="m99.14,1050.73c5.67-304.72,109.54-542.03,323.93-729.11,131.24-114.52,285.8-184.48,459.96-210.29,221.24-32.79,429.51,5.39,620.05,120.59,225.26,136.19,363.74,335.39,420.99,587.15,50.84,223.6,26.23,440.65-85.54,643.18-136.69,247.69-346.41,407.43-628.69,465.54-235.86,48.55-460.69,11.06-666.15-114.98-229.93-141.05-373.16-343.11-425.63-604.43-11.98-59.67-14.71-121.12-18.92-157.64Zm1792.26,44.38c.96-210.5-30.77-347.99-99.14-476.43-178.5-335.33-533.22-511.26-911.78-449.14-241.52,39.63-431.22,162.43-569.26,360.21-115.77,165.87-163.2,350.85-152.88,550.66,6.5,125.98,36.94,246.43,100.4,356.29,154.75,267.91,386.21,424.06,702.58,450.27,139.58,11.56,276.21-7.65,402.98-66.12,340.7-157.15,512.35-424.82,527.1-725.74Z"/>
      <path d="m1891.39,1095.11c-14.75,300.92-186.4,568.59-527.1,725.74-126.77,58.47-263.4,77.69-402.98,66.12-316.37-26.21-547.83-182.36-702.58-450.27-63.46-109.87-93.89-230.31-100.4-356.29-10.32-199.81,37.11-384.79,152.88-550.66,138.04-197.78,327.74-320.58,569.26-360.21,378.56-62.12,733.28,113.81,911.78,449.14,68.37,128.45,100.1,265.93,99.14,476.43Zm-428.22-58.78c2.7,1.49,5.84,2.34,7.6,4.34,28.73,32.88,58.33,65.09,85.52,99.16,19.52,24.46,21.63,52.21,8.94,81.75-23.93,55.73-62.89,99.67-108.37,139.12-10.19,8.83-16.96,8.02-27.15-.56-100.68-84.74-201.62-169.19-302.98-253.14-22.46-18.61-46.5-35.46-70.47-52.21-20.48-14.32-42.46-15.15-63.34-.82-20.39,13.99-40.65,28.34-59.64,44.07-105.7,87.53-211.07,175.44-316.28,263.53-9.58,8.02-16.75,8.39-26.08.13-36.82-32.57-69.17-68.6-95.72-109.91-28.44-44.26-29.24-86.57,5.27-127.53,25.96-30.81,52.81-60.89,80.27-92.44-32.44-46.43-27.99-99.72-18.68-153.59,2.16-12.49,8.5-19.79,22.5-20.25,10.72-.35,21.37-2.48,32.06-3.82-.04-.54-.09-1.07-.13-1.61h-102.23c0,39.84-.54,78.62.3,117.37.29,13.39-4.89,22.32-13.42,32.29-33.06,38.62-68.18,76.16-96.14,118.18-31.38,47.15-31.97,100.04-6.87,151.24,14.69,29.97,31.38,59.09,48.65,87.74,46.8,77.68,97.26,152.59,165.46,214.69,56.74,51.66,122.6,73.44,199.46,65.51,43.93-4.53,77.49-21.66,94.72-64.29,8.73-21.59,19.59-42.59,31.74-62.53,11.55-18.94,24.18-37.89,39.66-53.73,25.72-26.32,68.36-25.44,94.69.38,10.72,10.52,20.87,22.32,28.3,35.18,17.84,30.88,34.38,62.52,50.56,94.28,12.25,24.06,30.88,41.23,57.7,44.47,32.33,3.9,65.52,6.84,97.79,4.07,54.98-4.72,98.18-34.97,136.76-71.61,89.33-84.85,150.82-188.51,204.9-296.53,27.14-54.2,21.97-109.81-11.65-160.37-19.7-29.63-41.02-59.71-67.54-83.13-32.53-28.72-42.56-61.13-39.19-101.53,1.97-23.56.36-47.41.36-71.66h-109.21c15.2,2.76,30.35,5.09,45.57,5.8,12.74.6,17.68,6.67,19.55,18.33,8.76,54.6,12.69,108.44-23.23,159.63Zm-944.58-263.16c338.18,17.47,671.99,18.48,1006.85-.11-8.42-56.12-20.02-108.91-42.22-159.27-27.96-63.42-73.13-109.84-136.93-139.4-59.52-27.58-122.56-41.86-187.4-49.95-127.81-15.93-254.38-10.76-379.48,20.93-120.08,30.42-203.87,98.27-235.68,219.35-9.25,35.2-16.5,70.91-25.13,108.44Z"/>
      <path class="cls-1" d="m1463.17,1036.33c35.92-51.19,31.98-105.03,23.23-159.63-1.87-11.66-6.81-17.73-19.55-18.33-15.23-.71-30.37-3.04-45.57-5.8h109.21c0,24.25,1.61,48.1-.36,71.66-3.37,40.41,6.66,72.81,39.19,101.53,26.53,23.42,47.84,53.5,67.54,83.13,33.62,50.56,38.79,106.17,11.65,160.37-54.09,108.02-115.57,211.68-204.9,296.53-38.57,36.64-81.77,66.89-136.76,71.61-32.27,2.77-65.46-.16-97.79-4.07-26.82-3.24-45.46-20.41-57.7-44.47-16.17-31.77-32.72-63.4-50.56-94.28-7.43-12.87-17.58-24.67-28.3-35.18-26.33-25.82-68.97-26.7-94.69-.38-15.47,15.84-28.11,34.79-39.66,53.73-12.16,19.94-23.02,40.94-31.74,62.53-17.23,42.62-50.79,59.75-94.72,64.29-76.86,7.93-142.72-13.85-199.46-65.51-68.2-62.1-118.66-137.01-165.46-214.69-17.26-28.65-33.96-57.77-48.65-87.74-25.09-51.2-24.5-104.09,6.87-151.24,27.96-42.02,63.08-79.57,96.14-118.18,8.53-9.97,13.71-18.9,13.42-32.29-.84-38.75-.3-77.53-.3-117.37h102.23c.04.54.09,1.07.13,1.61-10.68,1.34-21.34,3.47-32.06,3.82-14,.45-20.34,7.76-22.5,20.25-9.31,53.87-13.76,107.15,18.68,153.59-27.45,31.55-54.3,61.64-80.27,92.44-34.52,40.96-33.72,83.27-5.27,127.53,26.55,41.31,58.9,77.34,95.72,109.91,9.33,8.26,16.51,7.89,26.08-.13,105.21-88.09,210.59-176,316.28-263.53,18.99-15.73,39.26-30.08,59.64-44.07,20.88-14.34,42.86-13.5,63.34.82,23.97,16.76,48.01,33.61,70.47,52.21,101.36,83.96,202.3,168.4,302.98,253.14,10.19,8.58,16.96,9.39,27.15.56,45.49-39.45,84.44-83.39,108.37-139.12,12.69-29.54,10.58-57.29-8.94-81.75-27.19-34.07-56.79-66.28-85.52-99.16-1.76-2.01-4.9-2.85-7.6-4.34Zm-602.42,437.11c-5.26-1.23-9.56-2.4-13.94-3.22-27.44-5.15-53.51,8.41-63.59,33-10.47,25.55.21,56.43,24.64,71.27,23.89,14.51,50.95,10.57,70.19-11.4,8.05-9.19,14.03-20.1,21.07-30.16,16.31-23.28,30.81-48.09,49.47-69.4,27.46-31.37,64.07-41.22,104.79-30.22,31.82,8.59,52.38,32.22,70.17,57.71,16.59,23.78,30.56,49.38,48.01,72.49,16.09,21.31,41.64,24.98,65.49,12.95,23.76-11.98,37.15-38.29,31.78-62.42-5.74-25.79-26.63-44.2-52.01-44.58-9.98-.15-19.99,2.01-29.92,3.11-10.59-17.61-20.54-35.6-31.91-52.68-11.44-17.18-23.77-33.86-36.72-49.97-8.72-10.86-18.53-21.1-29.02-30.34-39.4-34.72-92.04-34.72-130.61.62-41.03,37.6-70.89,83.4-97.91,133.23Z"/>
      <path class="cls-1" d="m518.6,773.17c8.64-37.53,15.89-73.24,25.13-108.44,31.81-121.08,115.6-188.92,235.68-219.35,125.11-31.7,251.68-36.86,379.48-20.93,64.84,8.08,127.89,22.37,187.4,49.95,63.8,29.56,108.97,75.98,136.93,139.4,22.2,50.35,33.8,103.15,42.22,159.27-334.86,18.59-668.67,17.58-1006.85.11Z"/>
      <path d="m860.75,1473.44c27.02-49.83,56.88-95.63,97.91-133.23,38.58-35.35,91.21-35.34,130.61-.62,10.49,9.24,20.29,19.48,29.02,30.34,12.95,16.12,25.28,32.8,36.72,49.97,11.37,17.08,21.32,35.07,31.91,52.68,9.93-1.1,19.94-3.26,29.92-3.11,25.38.38,46.26,18.79,52.01,44.58,5.37,24.13-8.02,50.44-31.78,62.42-23.85,12.03-49.4,8.36-65.49-12.95-17.45-23.11-31.42-48.71-48.01-72.49-17.79-25.49-38.35-49.12-70.17-57.71-40.72-11-77.33-1.15-104.79,30.22-18.66,21.31-33.16,46.12-49.47,69.4-7.04,10.05-13.03,20.97-21.07,30.16-19.24,21.97-46.3,25.92-70.19,11.4-24.43-14.84-35.11-45.73-24.64-71.27,10.08-24.59,36.15-38.15,63.59-33,4.37.82,8.67,1.99,13.94,3.22Z"/>
    </g>
  </g>
</svg>